<svg width="1018" height="180" viewBox="0 0 1018 180" fill="none" xmlns="http://www.w3.org/2000/svg">
<path d="M202.3 176L201.7 3.49999H161.8L101.5 103.7L39.7 3.49999H0.100002V176H44.2V84.8L90.1 157.7H111.4L157.6 81.8L157.9 176H202.3ZM377.545 176H424.345L346.645 3.49999H299.845L222.445 176H268.345L282.745 141.8H363.445L377.545 176ZM297.145 107.6L323.245 45.2L349.045 107.6H297.145ZM466.68 176H514.08V40.4H568.38V3.49999H412.38V40.4H466.68V176ZM673.546 179.3C705.646 179.3 730.246 170 747.946 147.8L717.346 119.9C705.646 134 691.546 140.6 675.346 140.6C646.246 140.6 624.946 120.2 624.946 89.9C624.946 59.3 646.246 38.9 675.346 38.9C691.546 38.9 705.646 45.5 717.346 59.6L747.946 31.7C730.246 9.5 705.946 0.199992 673.546 0.199992C618.346 0.199992 577.246 38 577.246 89.9C577.246 141.8 618.346 179.3 673.546 179.3ZM777.639 176H825.039V107.6H895.239V176H942.639V3.49999H895.239V69.5H825.039V3.49999H777.639V176ZM1035.67 139.7V105.8H1114.27V71.3H1035.67V39.8H1124.47V3.49999H988.87V176H1127.77V139.7H1035.67ZM1219.61 179.3C1269.41 179.3 1297.61 156.2 1297.61 123.5C1297.61 59.9 1197.71 81.2 1197.71 53C1197.71 44 1206.11 37.1 1226.51 37.1C1242.71 37.1 1259.81 40.7 1275.41 50.3L1290.71 15.2C1273.91 4.69999 1250.21 0.199992 1228.31 0.199992C1180.01 0.199992 1150.91 23.3 1150.91 55.7C1150.91 121.1 1250.81 98.3 1250.81 127.4C1250.81 135.8 1243.31 142.4 1222.31 142.4C1200.41 142.4 1178.51 135.8 1163.21 125.6L1146.71 160.7C1162.91 172.1 1192.01 179.3 1219.61 179.3Z" fill="#C70101" fill-opacity="0.03"/>
</svg>
