<svg width="1094" height="520" viewBox="0 0 1094 520" fill="none" xmlns="http://www.w3.org/2000/svg">
<path d="M0.800003 235H64V4.99998H0.800003V235ZM283.019 4.99998V132.2L177.019 4.99998H125.019V235H187.019V108.2L293.019 235H345.019V4.99998H283.019ZM406.659 235H515.059C593.859 235 645.859 191 645.859 120.2C645.859 49 593.859 4.99998 515.059 4.99998H406.659V235ZM469.859 185.4V54.6H513.059C555.059 54.6 581.859 77.8 581.859 120.2C581.859 162.2 555.059 185.4 513.059 185.4H469.859ZM803.044 239.4C877.444 239.4 932.244 189 932.244 120.2C932.244 51 877.444 0.59999 803.044 0.59999C728.644 0.59999 673.844 51 673.844 120.2C673.844 189 728.644 239.4 803.044 239.4ZM803.044 187.8C765.444 187.8 737.444 159.4 737.444 120.2C737.444 80.6 765.444 52.2 803.044 52.2C840.644 52.2 868.244 80.6 868.244 120.2C868.244 159.4 840.644 187.8 803.044 187.8ZM158.8 285V412.2L52.8 285H0.800003V515H62.8V388.2L168.8 515H220.8V285H158.8ZM344.841 466.6V421.4H449.641V375.4H344.841V333.4H463.241V285H282.441V515H467.641V466.6H344.841ZM590.091 519.4C656.491 519.4 694.091 488.6 694.091 445C694.091 360.2 560.891 388.6 560.891 351C560.891 339 572.091 329.8 599.291 329.8C620.891 329.8 643.691 334.6 664.491 347.4L684.891 300.6C662.491 286.6 630.891 280.6 601.691 280.6C537.291 280.6 498.491 311.4 498.491 354.6C498.491 441.8 631.691 411.4 631.691 450.2C631.691 461.4 621.691 470.2 593.691 470.2C564.491 470.2 535.291 461.4 514.891 447.8L492.891 494.6C514.491 509.8 553.291 519.4 590.091 519.4ZM734.003 515H797.203V285H734.003V515ZM1030.62 515H1093.02L989.422 285H927.022L823.822 515H885.022L904.222 469.4H1011.82L1030.62 515ZM923.422 423.8L958.222 340.6L992.622 423.8H923.422Z" fill="#D3D2D7" fill-opacity="0.04"/>
</svg>
